<svg xmlns="http://www.w3.org/2000/svg" xmlns:xlink="http://www.w3.org/1999/xlink" viewBox="0,0,256,256" width="64px" height="64px" fill-rule="nonzero"><defs><linearGradient x1="15.555" y1="8" x2="15.555" y2="28" gradientUnits="userSpaceOnUse" id="color-1"><stop offset="0" stop-color="#b19df7"></stop><stop offset="1" stop-color="#e6abff"></stop></linearGradient><linearGradient x1="48.445" y1="8" x2="48.445" y2="28" gradientUnits="userSpaceOnUse" id="color-2"><stop offset="0" stop-color="#b19df7"></stop><stop offset="1" stop-color="#e6abff"></stop></linearGradient><linearGradient x1="32" y1="28" x2="32" y2="58" gradientUnits="userSpaceOnUse" id="color-3"><stop offset="0" stop-color="#b19df7"></stop><stop offset="1" stop-color="#e6abff"></stop></linearGradient><linearGradient x1="18.5" y1="7" x2="18.5" y2="59.236" gradientUnits="userSpaceOnUse" id="color-4"><stop offset="0" stop-color="#1a6dff"></stop><stop offset="1" stop-color="#c822ff"></stop></linearGradient><linearGradient x1="45.5" y1="7" x2="45.5" y2="59.236" gradientUnits="userSpaceOnUse" id="color-5"><stop offset="0" stop-color="#1a6dff"></stop><stop offset="1" stop-color="#c822ff"></stop></linearGradient><linearGradient x1="32" y1="6.954" x2="32" y2="59.189" gradientUnits="userSpaceOnUse" id="color-6"><stop offset="0" stop-color="#1a6dff"></stop><stop offset="1" stop-color="#c822ff"></stop></linearGradient></defs><g fill="none" fill-rule="nonzero" stroke="none" stroke-width="1" stroke-linecap="butt" stroke-linejoin="miter" stroke-miterlimit="10" stroke-dasharray="" stroke-dashoffset="0" font-family="none" font-weight="none" font-size="none" text-anchor="none" style="mix-blend-mode: normal"><g transform="scale(4,4)"><path d="M16.045,8l-7.363,20h13.745z" fill="url(#color-1)"></path><path d="M47.955,8l-6.382,20h13.745z" fill="url(#color-2)"></path><path d="M22.427,28l9.573,30l9.573,-30z" fill="url(#color-3)"></path><path d="M32,59c-0.209,0 -0.419,-0.065 -0.596,-0.196l-27,-20c-0.356,-0.265 -0.496,-0.732 -0.343,-1.149l11.046,-30c0.147,-0.399 0.504,-0.632 0.96,-0.654c0.428,0.01 0.802,0.289 0.932,0.696l15.954,50c0.132,0.413 -0.019,0.864 -0.371,1.117c-0.174,0.124 -0.378,0.186 -0.582,0.186zM6.197,37.643l23.908,17.71l-14.126,-44.275z" fill="url(#color-4)"></path><path d="M32,59c-0.204,0 -0.408,-0.063 -0.582,-0.187c-0.353,-0.253 -0.503,-0.704 -0.371,-1.117l15.954,-50c0.13,-0.407 0.504,-0.686 0.932,-0.696c0.391,0.024 0.813,0.255 0.96,0.654l11.046,30c0.153,0.417 0.014,0.885 -0.343,1.149l-27,20c-0.177,0.132 -0.387,0.197 -0.596,0.197zM48.021,11.078l-14.126,44.275l23.908,-17.71z" fill="url(#color-5)"></path><path d="M32,59c-0.309,0 -0.601,-0.143 -0.789,-0.387l-23.318,-30c-0.234,-0.301 -0.277,-0.71 -0.109,-1.053c0.168,-0.343 0.516,-0.56 0.898,-0.56h46.637c0.382,0 0.73,0.218 0.898,0.561c0.168,0.343 0.125,0.752 -0.109,1.053l-23.318,30c-0.189,0.243 -0.481,0.386 -0.79,0.386zM10.726,29l21.274,27.37l21.274,-27.37z" fill="url(#color-6)"></path></g></g></svg>